<svg width="26" height="26" viewBox="0 0 26 26" fill="none" xmlns="http://www.w3.org/2000/svg">
<path d="M18.9382 9.43703C18.9382 7.70036 18.2619 6.03481 17.0579 4.80679C15.854 3.57878 14.2211 2.88889 12.5185 2.88889C10.8159 2.88889 9.18297 3.57878 7.97903 4.80679C6.7751 6.03481 6.09873 7.70036 6.09873 9.43703C6.09873 17.0765 2.88885 19.2593 2.88885 19.2593H22.1481C22.1481 19.2593 18.9382 17.0765 18.9382 9.43703Z" stroke="white" stroke-width="2" stroke-linecap="round" stroke-linejoin="round"/>
<path d="M14.4444 23.1111C14.2487 23.404 13.9678 23.6471 13.6298 23.8161C13.2918 23.9851 12.9086 24.0741 12.5185 24.0741C12.1285 24.0741 11.7452 23.9851 11.4072 23.8161C11.0692 23.6471 10.7883 23.404 10.5926 23.1111" stroke="white" stroke-width="2" stroke-linecap="round" stroke-linejoin="round"/>
<circle cx="19.7407" cy="6.25927" r="4.33333" fill="#EB5757"/>
</svg>
