<svg width="18" height="18" viewBox="0 0 18 18" fill="none" xmlns="http://www.w3.org/2000/svg">
<g clip-path="url(#clip0_19_127)">
<path d="M17.9993 9.05479C17.9993 4.05304 13.9696 -0.00146484 8.99932 -0.00146484C4.02682 -0.000339844 -0.00292969 4.05304 -0.00292969 9.05591C-0.00292969 13.575 3.28882 17.3213 7.59082 18.0008V11.6727H5.30707V9.05591H7.59307V7.05904C7.59307 4.78991 8.93745 3.53666 10.9928 3.53666C11.9783 3.53666 13.0077 3.71329 13.0077 3.71329V5.94079H11.8726C10.7554 5.94079 10.4067 6.63941 10.4067 7.35604V9.05479H12.9019L12.5037 11.6715H10.4056V17.9997C14.7076 17.3202 17.9993 13.5739 17.9993 9.05479Z" fill="white"/>
</g>
<defs>
<clipPath id="clip0_19_127">
<rect width="18" height="18" fill="white"/>
</clipPath>
</defs>
</svg>
