<svg width="18" height="18" viewBox="0 0 18 18" fill="none" xmlns="http://www.w3.org/2000/svg">
<g clip-path="url(#clip0_19_87)">
<path d="M3.94943 7.32375C4.30034 6.26209 4.97758 5.33836 5.88452 4.68435C6.79146 4.03034 7.88178 3.67945 8.99993 3.68175C10.2674 3.68175 11.4134 4.13175 12.3134 4.86825L14.9324 2.25C13.3364 0.85875 11.2912 0 8.99993 0C5.45243 0 2.39843 2.0235 0.929932 4.9875L3.94943 7.32375Z" fill="#EA4335"/>
<path d="M12.03 13.5098C11.2125 14.037 10.1745 14.3183 8.99998 14.3183C7.88629 14.3205 6.80009 13.9725 5.89516 13.3233C4.99024 12.6741 4.31244 11.7567 3.95773 10.701L0.927734 13.0013C1.67117 14.506 2.82169 15.772 4.2486 16.6557C5.67552 17.5393 7.32164 18.005 8.99998 18C11.1997 18 13.3012 17.2178 14.8755 15.75L12.0307 13.5098H12.03Z" fill="#34A853"/>
<path d="M14.8755 15.75C16.5217 14.214 17.5905 11.928 17.5905 9C17.5905 8.4675 17.5087 7.89524 17.3865 7.36349H9V10.8412H13.827C13.5893 12.0105 12.9495 12.9157 12.0308 13.5097L14.8755 15.75Z" fill="#4A90E2"/>
<path d="M3.95784 10.701C3.77435 10.1527 3.68114 9.57821 3.68184 9C3.68184 8.4135 3.77559 7.85025 3.94959 7.32375L0.930087 4.9875C0.312371 6.23452 -0.00605996 7.60839 8.73409e-05 9C8.73409e-05 10.44 0.333837 11.7975 0.927837 13.0013L3.95784 10.701Z" fill="#FBBC05"/>
</g>
<defs>
<clipPath id="clip0_19_87">
<rect width="18" height="18" fill="white"/>
</clipPath>
</defs>
</svg>
