<svg width="26" height="26" viewBox="0 0 26 26" fill="none" xmlns="http://www.w3.org/2000/svg">
<path d="M6.27929 4.81479H20.3626C21.2286 4.81473 22.0618 5.14606 22.6913 5.74082C23.3208 6.33557 23.6988 7.14865 23.7478 8.01327L23.7531 8.20522V18.1157C23.7531 18.9817 23.4218 19.8149 22.827 20.4444C22.2323 21.0739 21.4192 21.4519 20.5546 21.5009L20.3626 21.5061H6.27929C5.41328 21.5062 4.58008 21.1749 3.9506 20.5801C3.32113 19.9854 2.9431 19.1723 2.89407 18.3077L2.88885 18.1157V8.20522C2.8888 7.33921 3.22013 6.50601 3.81488 5.87654C4.40964 5.24706 5.22272 4.86903 6.08734 4.82L6.27929 4.81479H20.3626H6.27929ZM22.1882 10.42L13.6861 14.8953C13.5901 14.946 13.4846 14.9762 13.3763 14.9839C13.268 14.9917 13.1592 14.9768 13.057 14.9402L12.9569 14.8964L4.45367 10.421V18.1157C4.45369 18.5739 4.62598 19.0153 4.93634 19.3523C5.24671 19.6894 5.67245 19.8974 6.12906 19.9351L6.27929 19.9413H20.3626C20.821 19.9413 21.2625 19.7689 21.5996 19.4583C21.9366 19.1477 22.1445 18.7217 22.182 18.2649L22.1882 18.1157V10.42ZM20.3626 6.3796H6.27929C5.82112 6.37962 5.37971 6.55191 5.04268 6.86228C4.70564 7.17264 4.49763 7.59838 4.45993 8.055L4.45367 8.20522V8.65276L13.321 13.319L22.1882 8.65171V8.20522C22.1882 7.74689 22.0158 7.30534 21.7052 6.96828C21.3946 6.63122 20.9686 6.42332 20.5118 6.38586L20.3626 6.3796Z" fill="white"/>
</svg>
